<svg xmlns="http://www.w3.org/2000/svg" viewBox="0 0 256 256" role="img" aria-label="Gosball">
  <defs>
    <linearGradient id="mark" x1="76" y1="74" x2="177" y2="204" gradientUnits="userSpaceOnUse">
      <stop offset="0" stop-color="#FFFFFF"/>
      <stop offset="0.52" stop-color="#F3F3F3"/>
      <stop offset="1" stop-color="#BFC2C8"/>
    </linearGradient>
    <filter id="softShadow" x="-20%" y="-20%" width="140%" height="140%">
      <feDropShadow dx="0" dy="7" stdDeviation="7" flood-color="#000000" flood-opacity="0.42"/>
    </filter>
  </defs>

  <rect width="256" height="256" fill="#0B1117"/>
  <circle cx="128" cy="128" r="116" fill="#080B10"/>
  <circle cx="128" cy="128" r="108" fill="#020304" stroke="#252C35" stroke-width="7"/>
  <circle cx="128" cy="128" r="118" fill="none" stroke="#171E27" stroke-width="4"/>

  <g filter="url(#softShadow)">
    <text
      x="128"
      y="69"
      text-anchor="middle"
      fill="#F8F8F8"
      font-family="Arial, Helvetica, sans-serif"
      font-size="15"
      font-weight="900"
      letter-spacing="13"
    >GOSBALL</text>

    <g fill="url(#mark)">
      <path d="M57 85h68v31H91v55l34 23v-57l-19-13V105l52 35v69l-33 20-68-46V85z"/>
      <path d="M131 85h68v44l-31 20 35 24v38l-72 18V85zm34 31v54l17-11v-43h-17zm0 83 20-6v-21l-20-14v41z"/>
    </g>
    <path d="M128 221V91" stroke="#020304" stroke-width="6" stroke-linecap="square"/>
  </g>
</svg>
